<?xml version="1.0" encoding="UTF-8" standalone="no"?>
<!DOCTYPE svg PUBLIC "-//W3C//DTD SVG 1.1//EN"
 "http://www.w3.org/Graphics/SVG/1.1/DTD/svg11.dtd">
<!-- Generated by graphviz version 8.1.0 (20230707.0739)
 -->
<!-- Pages: 1 -->
<svg width="187pt" height="306pt"
 viewBox="0.00 0.00 187.08 306.02" xmlns="http://www.w3.org/2000/svg" xmlns:xlink="http://www.w3.org/1999/xlink">
<g id="graph0" class="graph" transform="scale(1 1) rotate(0) translate(4 302.02)">
<polygon fill="white" stroke="none" points="-4,4 -4,-302.02 183.08,-302.02 183.08,4 -4,4"/>
<!-- A -->
<g id="node1" class="node">
<title>A</title>
<polygon fill="lightgray" stroke="black" points="87.42,-298.02 64.67,-298.02 64.67,-278.77 87.42,-278.77 87.42,-298.02"/>
<text text-anchor="middle" x="76.04" y="-285.47" font-family="Times New Roman,serif" font-size="9.00">A</text>
</g>
<!-- A XOR B -->
<g id="node3" class="node">
<title>A XOR B</title>
<ellipse fill="lightblue" stroke="black" cx="76.04" cy="-121.38" rx="37.3" ry="37.3"/>
<text text-anchor="middle" x="76.04" y="-118.46" font-family="Times New Roman,serif" font-size="9.00">A XOR B</text>
</g>
<!-- A&#45;&gt;A XOR B -->
<g id="edge5" class="edge">
<title>A&#45;&gt;A XOR B</title>
<path fill="none" stroke="red" stroke-width="0.34" d="M76.04,-278.52C76.04,-258.24 76.04,-207.3 76.04,-169.08"/>
<polygon fill="red" stroke="red" stroke-width="0.34" points="79.54,-169.17 76.04,-159.17 72.54,-169.17 79.54,-169.17"/>
</g>
<!-- 2520 -->
<g id="node6" class="node">
<title>2520</title>
<ellipse fill="white" stroke="black" cx="24.04" cy="-218.72" rx="24.04" ry="24.04"/>
<text text-anchor="middle" x="24.04" y="-215.8" font-family="Times New Roman,serif" font-size="9.00">2520</text>
</g>
<!-- A&#45;&gt;2520 -->
<g id="edge6" class="edge">
<title>A&#45;&gt;2520</title>
<path fill="none" stroke="red" stroke-width="0.16" d="M69.24,-278.55C62.89,-270.28 53.08,-257.52 44.22,-245.99"/>
<polygon fill="red" stroke="red" stroke-width="0.16" points="47.17,-244.07 38.3,-238.28 41.62,-248.34 47.17,-244.07"/>
</g>
<!-- 125 -->
<g id="node8" class="node">
<title>125</title>
<ellipse fill="white" stroke="black" cx="125.04" cy="-218.72" rx="20.86" ry="20.86"/>
<text text-anchor="middle" x="125.04" y="-215.8" font-family="Times New Roman,serif" font-size="9.00">125</text>
</g>
<!-- A&#45;&gt;125 -->
<g id="edge1" class="edge">
<title>A&#45;&gt;125</title>
<path fill="none" stroke="green" stroke-width="0.87" d="M82.45,-278.55C88.65,-269.98 98.35,-256.59 106.92,-244.75"/>
<polygon fill="green" stroke="green" stroke-width="0.87" points="110.15,-247.25 113.18,-237.1 104.48,-243.15 110.15,-247.25"/>
</g>
<!-- B -->
<g id="node2" class="node">
<title>B</title>
<polygon fill="lightgray" stroke="black" points="160.04,-298.02 138.04,-298.02 138.04,-278.77 160.04,-278.77 160.04,-298.02"/>
<text text-anchor="middle" x="149.04" y="-285.47" font-family="Times New Roman,serif" font-size="9.00">B</text>
</g>
<!-- B&#45;&gt;A XOR B -->
<g id="edge10" class="edge">
<title>B&#45;&gt;A XOR B</title>
<path fill="none" stroke="green" stroke-width="0.45" d="M152.23,-278.49C157.81,-261.4 167.59,-223.17 155.04,-194.68 150.32,-183.96 131.11,-166.28 112.82,-151.09"/>
<polygon fill="green" stroke="green" stroke-width="0.45" points="115.03,-148.38 105.08,-144.76 110.6,-153.8 115.03,-148.38"/>
</g>
<!-- B&#45;&gt;125 -->
<g id="edge3" class="edge">
<title>B&#45;&gt;125</title>
<path fill="none" stroke="red" stroke-width="0.74" d="M145.9,-278.55C143.24,-271.02 139.25,-259.77 135.47,-249.12"/>
<polygon fill="red" stroke="red" stroke-width="0.74" points="138.46,-248.09 131.82,-239.83 131.86,-250.43 138.46,-248.09"/>
</g>
<!-- 67 -->
<g id="node4" class="node">
<title>67</title>
<ellipse fill="white" stroke="black" cx="46.04" cy="-24.04" rx="17.68" ry="17.68"/>
<text text-anchor="middle" x="46.04" y="-21.12" font-family="Times New Roman,serif" font-size="9.00">67</text>
</g>
<!-- A XOR B&#45;&gt;67 -->
<g id="edge4" class="edge">
<title>A XOR B&#45;&gt;67</title>
<path fill="none" stroke="green" stroke-width="0.21" d="M65.04,-85.42C61.44,-73.98 57.51,-61.49 54.16,-50.86"/>
<polygon fill="green" stroke="green" stroke-width="0.21" points="57.5,-49.81 51.16,-41.32 50.83,-51.91 57.5,-49.81"/>
</g>
<!-- 2522 -->
<g id="node7" class="node">
<title>2522</title>
<ellipse fill="white" stroke="black" cx="106.04" cy="-24.04" rx="24.04" ry="24.04"/>
<text text-anchor="middle" x="106.04" y="-21.12" font-family="Times New Roman,serif" font-size="9.00">2522</text>
</g>
<!-- A XOR B&#45;&gt;2522 -->
<g id="edge9" class="edge">
<title>A XOR B&#45;&gt;2522</title>
<path fill="none" stroke="red" stroke-width="0.18" d="M87.04,-85.42C90.02,-75.96 93.23,-65.77 96.14,-56.51"/>
<polygon fill="red" stroke="red" stroke-width="0.18" points="99.39,-57.85 99.05,-47.26 92.71,-55.75 99.39,-57.85"/>
</g>
<!-- 2275 -->
<g id="node5" class="node">
<title>2275</title>
<ellipse fill="white" stroke="black" cx="155.04" cy="-121.38" rx="24.04" ry="24.04"/>
<text text-anchor="middle" x="155.04" y="-118.46" font-family="Times New Roman,serif" font-size="9.00">2275</text>
</g>
<!-- 2520&#45;&gt;A XOR B -->
<g id="edge7" class="edge">
<title>2520&#45;&gt;A XOR B</title>
<path fill="none" stroke="green" stroke-width="0.14" d="M35.32,-197.04C40.7,-187.17 47.34,-175.01 53.68,-163.39"/>
<polygon fill="green" stroke="green" stroke-width="0.14" points="56.72,-165.11 58.44,-154.66 50.58,-161.76 56.72,-165.11"/>
</g>
<!-- 125&#45;&gt;A XOR B -->
<g id="edge2" class="edge">
<title>125&#45;&gt;A XOR B</title>
<path fill="none" stroke="green" stroke-width="0.85" d="M115.83,-199.79C110.71,-189.83 104.11,-176.99 97.76,-164.64"/>
<polygon fill="green" stroke="green" stroke-width="0.85" points="100.44,-163.19 92.75,-155.9 94.21,-166.39 100.44,-163.19"/>
</g>
<!-- 125&#45;&gt;2275 -->
<g id="edge8" class="edge">
<title>125&#45;&gt;2275</title>
<path fill="none" stroke="green" stroke-width="0.13" stroke-dasharray="1,5" d="M131.11,-198.43C135.13,-185.67 140.49,-168.63 145.12,-153.92"/>
<polygon fill="green" stroke="green" stroke-width="0.13" points="148.37,-155.25 148.03,-144.66 141.69,-153.15 148.37,-155.25"/>
</g>
</g>
</svg>
